{"title":"Zanjeer (2013) 1 CD XVID Scam Rip - Team IcTv - Hindi","uid":8887676,"size":734819278,"categoryP":"video","categoryS":"movies","magnet":"?xt=urn:btih:1213553d932d1f5562e43c0ce8a1506c89810a7b&amp;dn=Zanjeer+%282013%29+1+CD+XVID+Scam+Rip+-+Team+IcTv+-+Hindi&amp;tr=udp%3A%2F%2Ftracker.openbittorrent.com%3A80&amp;tr=udp%3A%2F%2Fopen.demonii.com%3A1337&amp;tr=udp%3A%2F%2Ftracker.coppersurfer.tk%3A6969&amp;tr=udp%3A%2F%2Fexodus.desync.com%3A6969","seeders":1,"leechers":0,"uploader":"SJonam","files":1,"time":1378499324,"description":" &lt;a href=&quot;http://s18.postimg.org/q1xcnecvd/9999999999.jpg&quot; rel=&quot;nofollow&quot; target=&quot;_NEW&quot;&gt;http://s18.postimg.org/q1xcnecvd/9999999999.jpg&lt;/a&gt; &lt;a href=&quot;\nhttp://img545.imageshack.us/img545/7808/nthh.jpg&quot; rel=&quot;nofollow&quot; target=&quot;_NEW&quot;&gt;\nhttp://img545.imageshack.us/img545/7808/nthh.jpg&lt;/a&gt; &lt;a href=&quot;\nhttp://t1.someimage.com/fKP1G3K.jpg&quot; rel=&quot;nofollow&quot; target=&quot;_NEW&quot;&gt;\nhttp://t1.someimage.com/fKP1G3K.jpg&lt;/a&gt; &lt;a href=&quot;\nhttp://t1.someimage.com/Oyx2bR7.jpg&quot; rel=&quot;nofollow&quot; target=&quot;_NEW&quot;&gt;\nhttp://t1.someimage.com/Oyx2bR7.jpg&lt;/a&gt; &lt;a href=&quot;\nhttp://t1.someimage.com/JaCclCA.jpg&quot; rel=&quot;nofollow&quot; target=&quot;_NEW&quot;&gt;\nhttp://t1.someimage.com/JaCclCA.jpg&lt;/a&gt; &lt;a href=&quot;\nhttp://t1.someimage.com/iL26hUx.jpg&quot; rel=&quot;nofollow&quot; target=&quot;_NEW&quot;&gt;\nhttp://t1.someimage.com/iL26hUx.jpg&lt;/a&gt; &lt;a href=&quot;\nhttp://t1.someimage.com/NF0p2Py.jpg&quot; rel=&quot;nofollow&quot; target=&quot;_NEW&quot;&gt;\nhttp://t1.someimage.com/NF0p2Py.jpg&lt;/a&gt;\n\nMedia Info - \nGeneral\nComplete name : Zanjeer (2013) 1 CD XVID Scam Rip - team IcTv.avi\nFormat : AVI\nFormat/Info : Audio Video Interleave\nFile size : 701 MiB\nDuration : 2h 2mn\nOverall bit rate : 803 Kbps\n\nVideo\nFormat : MPEG-4 Visual\nFormat profile : Advanced Simple@L5\nFormat settings, BVOP : 2\nFormat settings, QPel : No\nFormat settings, GMC : No warppoints\nFormat settings, Matrix : Default (H.263)\nCodec ID : XVID\nCodec ID/Hint : XviD\nDuration : 2h 2mn\nBit rate : 603 Kbps\nWidth : 576 pixels\nHeight : 208 pixels\nDisplay aspect ratio : 2.769\nFrame rate : 25.000 fps\nColor space : YUV\nChroma subsampling : 4:2:0\nBit depth : 8 bits\nScan type : Progressive\nCompression mode : Lossy\nBits/(Pixel*Frame) : 0.201\nStream size : 526 MiB (75%)\nWriting library : XviD 1.2.1 (UTC 2008-12-04)\n\nAudio\nFormat : AC-3\nFormat/Info : Audio Coding 3\nMode extension : CM (complete main)\nCodec ID : 2000\nDuration : 2h 2mn\nBit rate mode : Constant\nBit rate : 192 Kbps\nChannel(s) : 2 channels\nChannel positions : Front: L R\nSampling rate : 48.0 KHz\nBit depth : 16 bits\nCompression mode : Lossy\nStream size : 168 MiB (24%)\nAlignment : Aligned on interleaves\nInterleave, duration : 64 ms (1.60 video frames)\nInterleave, preload duration : 192 ms\nTitle : VTS_01_1 T80 2_0ch 192Kbps DELAY 0ms\n\n &lt;a href=&quot;\nhttp://www.sendspace.com/file/gz338v&quot; rel=&quot;nofollow&quot; target=&quot;_NEW&quot;&gt;\nhttp://www.sendspace.com/file/gz338v&lt;/a&gt;\nRipper : TJ_DA_King\n\nSeeding 24x7... Extreme Seeding...\n\n\nEnjoy!\n","torrent":{"xt":"urn:btih:1213553d932d1f5562e43c0ce8a1506c89810a7b","amp;dn":"Zanjeer+%282013%29+1+CD+XVID+Scam+Rip+-+Team+IcTv+-+Hindi","amp;tr":["udp%3A%2F%2Ftracker.openbittorrent.com%3A80","udp%3A%2F%2Fopen.demonii.com%3A1337","udp%3A%2F%2Ftracker.coppersurfer.tk%3A6969","udp%3A%2F%2Fexodus.desync.com%3A6969"],"infoHash":"1213553d932d1f5562e43c0ce8a1506c89810a7b","infoHashBuffer":{"type":"Buffer","data":[18,19,85,61,147,45,31,85,98,228,60,12,232,161,80,108,137,129,10,123]},"announce":[],"urlList":[]}}